<?xml version="1.0" encoding="UTF-8"?>
<!-- Generator: Adobe Illustrator 24.3.0, SVG Export Plug-In . SVG Version: 6.00 Build 0)  -->
<svg xmlns="http://www.w3.org/2000/svg" xmlns:xlink="http://www.w3.org/1999/xlink" version="1.1" id="Layer_1" x="0px" y="0px" viewBox="0 0 233 80" style="enable-background:new 0 0 233 80;" xml:space="preserve">
<style type="text/css">
	.st0{fill:#8A8A8A;}
</style>
<path class="st0" d="M135.41,26.86l-6.12,13.91l-6.06-13.91h-5.2l8.74,18.48v4.97h5.05v-4.97l8.79-18.48H135.41z"></path>
<path class="st0" d="M97.21,26.86v4.53h6.72v18.92h5.03V31.39h6.7v-4.53H97.21z"></path>
<path class="st0" d="M14.77,45.26c-0.61,0.58-1.37,0.87-2.29,0.87H7.13V40.1h5.36c0.92,0,1.68,0.29,2.29,0.88  c0.61,0.58,0.91,1.3,0.91,2.15C15.68,43.97,15.38,44.69,14.77,45.26 M7.13,31.05h4.69c0.83,0,1.48,0.23,1.97,0.69  c0.48,0.46,0.72,1.07,0.72,1.83c0,0.76-0.24,1.37-0.72,1.83c-0.48,0.46-1.14,0.69-1.97,0.69H7.13V31.05L7.13,31.05z M19.37,39.77  c-0.34-0.38-0.73-0.73-1.18-1.06c-0.45-0.32-0.76-0.52-0.93-0.61c-0.17-0.08-0.31-0.14-0.42-0.19l0.28-0.16  c0.17-0.11,0.4-0.3,0.66-0.56c0.27-0.27,0.54-0.58,0.81-0.96c0.27-0.37,0.5-0.84,0.67-1.4c0.17-0.56,0.26-1.15,0.26-1.77  c0-1.65-0.7-3.09-2.09-4.33c-1.39-1.24-3.16-1.86-5.29-1.86H2.08v23.45h10.65c2.33,0,4.24-0.68,5.73-2.03  c1.5-1.35,2.25-2.97,2.25-4.84c0-0.75-0.14-1.46-0.42-2.12C20.02,40.67,19.71,40.15,19.37,39.77z"></path>
<path class="st0" d="M23.26,26.86v23.45h14.61v-4.62h-9.56V26.86H23.26z"></path>
<path class="st0" d="M94.62,26.86h-5.05v23.45h5.05V26.86z"></path>
<path class="st0" d="M81.99,26.82l-7.9,18.26l-7.82-18.26h-5.32l10.45,23.5h5.38l10.41-23.5H81.99z"></path>
<path class="st0" d="M52.96,34.69l0.79-1.75l3.33,7.44h-0.02l0.29,0.66h-7.21l0.29-0.66H50.4L52.96,34.69L52.96,34.69z M51.05,26.82  L40.61,50.33h5.4l2.1-4.69h11.27l0.48,1.09l1.61,3.59h5.4L56.43,26.82H51.05L51.05,26.82z"></path>
<path class="st0" d="M174.13,38.18c0.19,0.08,0.53,0.28,1,0.59c0.48,0.31,0.9,0.67,1.26,1.07c0.36,0.4,0.7,0.96,1,1.67  c0.31,0.71,0.46,1.49,0.46,2.33c0,1.91-0.8,3.55-2.39,4.93c-1.59,1.38-3.69,2.07-6.3,2.07c-1.11,0-2.18-0.13-3.2-0.38  c-1.03-0.25-1.87-0.56-2.52-0.92c-0.65-0.36-1.23-0.71-1.72-1.07c-0.49-0.35-0.85-0.67-1.07-0.93l-0.34-0.37l3.02-3.16  c0.04,0.06,0.12,0.15,0.21,0.27c0.1,0.11,0.32,0.32,0.67,0.6c0.35,0.29,0.71,0.54,1.1,0.76c0.38,0.22,0.88,0.42,1.48,0.59  c0.6,0.17,1.23,0.26,1.87,0.26c1.29,0,2.29-0.28,2.98-0.85c0.69-0.56,1.03-1.28,1.03-2.15c0-0.87-0.34-1.58-1.02-2.15  c-0.68-0.56-1.62-0.85-2.81-0.85h-2.51v-4.17h2.33c0.98,0,1.75-0.26,2.32-0.78c0.57-0.52,0.86-1.2,0.86-2.05  c0-0.78-0.28-1.42-0.85-1.92c-0.56-0.5-1.34-0.75-2.33-0.75c-0.85,0-1.64,0.18-2.39,0.55c-0.75,0.37-1.28,0.73-1.61,1.07L164.16,33  l-3-2.99c0.07-0.09,0.16-0.21,0.29-0.37c0.13-0.16,0.44-0.44,0.94-0.85c0.49-0.41,1.03-0.77,1.59-1.06c0.57-0.3,1.32-0.58,2.25-0.83  c0.94-0.25,1.91-0.38,2.94-0.38c2.36,0,4.25,0.62,5.69,1.86c1.43,1.24,2.15,2.79,2.15,4.63c0,0.68-0.12,1.32-0.35,1.91  s-0.51,1.07-0.83,1.44c-0.32,0.37-0.64,0.68-0.96,0.93c-0.32,0.25-0.61,0.44-0.86,0.54l-0.33,0.16  C173.79,38.04,173.94,38.1,174.13,38.18L174.13,38.18z"></path>
<path class="st0" d="M193.78,36.96c1.62,1.64,2.43,3.54,2.43,5.7c0,2.29-0.83,4.22-2.5,5.8c-1.67,1.58-3.78,2.37-6.34,2.37  c-2.56,0-4.67-0.79-6.34-2.37c-1.67-1.58-2.5-3.51-2.5-5.8c0-0.93,0.17-1.87,0.5-2.81c0.33-0.94,0.67-1.65,1-2.11l0.51-0.73  l6.51-10.01h5.18l-5.02,7.66c0.29-0.11,0.63-0.16,1.01-0.16C190.3,34.49,192.16,35.31,193.78,36.96z M190.23,39.93  c-0.75-0.74-1.71-1.11-2.87-1.11c-1.16,0-2.11,0.37-2.87,1.11c-0.76,0.74-1.13,1.65-1.13,2.73c0,1.09,0.38,1.99,1.13,2.72  c0.76,0.73,1.71,1.1,2.87,1.1c1.16,0,2.12-0.37,2.87-1.1c0.76-0.73,1.13-1.64,1.13-2.72C191.36,41.58,190.99,40.66,190.23,39.93z"></path>
<path class="st0" d="M214.65,47.48c-1.94,2.23-4.31,3.35-7.09,3.35c-2.78,0-5.15-1.12-7.09-3.35c-1.95-2.24-2.92-5.17-2.92-8.82  c0-3.65,0.97-6.58,2.92-8.81c1.94-2.23,4.31-3.34,7.09-3.34c2.78,0,5.15,1.11,7.09,3.34c1.95,2.23,2.92,5.17,2.92,8.81  S216.59,45.24,214.65,47.48z M204.03,44.32c0.99,1.33,2.16,2,3.52,2c1.36,0,2.53-0.67,3.52-2c0.99-1.33,1.48-3.22,1.48-5.66  c0-2.44-0.49-4.33-1.48-5.66c-0.99-1.33-2.16-2-3.52-2c-1.36,0-2.53,0.67-3.52,2c-0.99,1.33-1.48,3.22-1.48,5.66  C202.55,41.1,203.05,42.99,204.03,44.32z"></path>
<path class="st0" d="M188.08,79.36c-6.66,0-13.3-1.81-19.22-5.23c-5.93-3.43-10.88-8.33-14.32-14.16  c-4.12-6.98-5.93-15.01-5.25-23.22c0.68-8.14,3.73-15.71,8.84-21.88c0.53-0.63,13.08-15.53,32.81-14.12  c17.42,1.24,31.9,13.67,36.02,30.94c0.1,0.41-0.15,0.82-0.57,0.92c-0.41,0.1-0.83-0.15-0.92-0.57c-2-8.35-6.45-15.6-12.87-20.97  c-6.21-5.19-13.73-8.23-21.77-8.8c-18.95-1.35-31.01,12.96-31.52,13.57c-4.91,5.93-7.85,13.21-8.5,21.03  c-0.66,7.89,1.09,15.61,5.04,22.32c3.3,5.6,8.06,10.31,13.76,13.61c5.78,3.35,12.27,5.09,18.77,5.03c8.51-0.08,16.48-2.8,23.07-7.88  c6.83-5.27,11.68-12.76,14.02-21.66c0.11-0.41,0.53-0.65,0.93-0.54c0.41,0.11,0.65,0.53,0.55,0.93c-2.43,9.23-7.47,17-14.57,22.48  c-6.85,5.28-15.14,8.12-23.99,8.2C188.3,79.35,188.18,79.35,188.08,79.36L188.08,79.36z"></path>
<path class="st0" d="M227.04,45.03c-2.78,0-5.04-2.26-5.04-5.03c0-2.77,2.26-5.03,5.04-5.03s5.04,2.26,5.04,5.03  C232.08,42.77,229.82,45.03,227.04,45.03z M227.04,36.56c-1.9,0-3.45,1.54-3.45,3.45c0,1.9,1.55,3.45,3.45,3.45s3.45-1.54,3.45-3.45  C230.49,38.1,228.94,36.56,227.04,36.56z"></path>
</svg>
