<?xml version="1.0" encoding="UTF-8"?>
<svg xmlns="http://www.w3.org/2000/svg" width="177" height="24" viewBox="0 0 177 24" fill="none">
  <g clip-path="url(#clip0_190_736)">
    <path d="M9.36483 0.808136H13.63L22.0999 23.1954H17.6493L16.177 19.1184H6.81605L5.34381 23.1954H0.89502L9.36483 0.808136ZM8.25977 15.1909H14.7333L11.5126 6.29764L8.25977 15.1909Z" fill="#8A8A8A"></path>
    <path d="M24.5239 0.808136H38.9486V4.91725H28.8853V10.1004H38.9486V14.1472H28.8853V23.1919H24.5239V0.808136Z" fill="#8A8A8A"></path>
    <path d="M42.5686 0.808136H51.6515C52.9402 0.808136 54.0916 1.00228 55.104 1.39057C56.1164 1.77886 56.9755 2.31499 57.6813 2.99895C58.3835 3.68113 58.9378 4.50046 59.3086 5.40707C59.6864 6.32792 59.8754 7.32002 59.8754 8.38159C59.8754 9.79048 59.5314 11.0907 58.8452 12.2752C58.159 13.4614 57.1929 14.3698 55.947 15.0039L60.3673 23.1919H55.5175L51.9278 16.1403H46.8944V23.1919H42.5686V0.808136ZM46.8944 4.79613V12.1861H51.3147C52.0294 12.1861 52.6497 12.0846 53.1701 11.878C53.6923 11.6749 54.1272 11.3971 54.4748 11.0498C54.8188 10.7096 55.0808 10.2963 55.2412 9.83679C55.4052 9.37725 55.4872 8.89634 55.4872 8.41187C55.4872 7.30755 55.1396 6.42945 54.4445 5.77398C53.7494 5.11852 52.7067 4.79435 51.3129 4.79079H46.8926V4.79791L46.8944 4.79613Z" fill="#8A8A8A"></path>
    <path d="M74.0221 23.5C72.4251 23.5 70.9332 23.199 69.543 22.5952C66.7981 21.4214 64.6218 19.2306 63.4669 16.4769C62.8698 15.0876 62.5721 13.5933 62.5757 11.9973C62.5757 10.4014 62.8733 8.9106 63.4669 7.52131C64.6183 4.76943 66.7981 2.57683 69.543 1.40305C70.9332 0.799244 72.4251 0.49823 74.0221 0.49823C75.6191 0.49823 77.1145 0.799244 78.5172 1.40305C79.8807 1.98371 81.1248 2.82263 82.1693 3.86995C83.2084 4.92261 84.0443 6.16051 84.6289 7.51953C85.2332 8.90882 85.5344 10.4032 85.5344 11.9956C85.5344 13.5879 85.2385 15.0823 84.645 16.4716C84.0711 17.8342 83.2351 19.0739 82.1889 20.1212C81.1355 21.1703 79.8896 22.0092 78.5225 22.5881C77.1162 23.1937 75.6173 23.4964 74.0203 23.4964L74.0221 23.5ZM74.0221 19.2377C75.0451 19.2377 75.9898 19.0471 76.8578 18.6713C77.7098 18.3044 78.4815 17.7736 79.1303 17.1075C79.7755 16.4395 80.2871 15.6523 80.6346 14.7902C80.9947 13.9014 81.1765 12.9556 81.1729 11.9991C81.18 11.032 80.9929 10.0719 80.6222 9.17778C80.271 8.32282 79.7595 7.54268 79.1178 6.87831C78.4691 6.21394 77.6973 5.68138 76.8489 5.31446C75.9595 4.92439 74.997 4.7249 74.0256 4.73203C73.0578 4.7249 72.1007 4.92261 71.2184 5.31446C69.5109 6.05898 68.1652 7.44828 67.4736 9.17778C67.1136 10.0719 66.93 11.032 66.9354 11.9991C66.9282 13.8996 67.6537 15.7289 68.9619 17.1039C69.6018 17.7718 70.3682 18.3026 71.2184 18.6677C72.1007 19.0507 73.0578 19.2448 74.0221 19.2377Z" fill="#8A8A8A"></path>
    <path d="M167.944 22.0714C167.791 22.2389 167.75 22.474 167.6 22.6485C167.167 23.1562 166.588 23.3699 166.046 23.1918C165.422 22.9852 164.957 22.3831 164.93 21.7437C164.919 21.5246 164.923 16.5196 164.934 13.8301C164.934 13.5949 164.887 13.6626 164.636 13.6626C161.82 13.6733 155.615 13.6751 152.799 13.6626C152.521 13.6626 152.487 13.7517 152.487 13.9939C152.498 16.8473 152.491 18.7514 152.498 21.6066C152.498 22.0857 152.341 22.4918 151.997 22.8088C151.571 23.2025 151.086 23.3984 150.509 23.149C149.915 22.8943 149.568 22.4473 149.489 21.7989C149.479 21.7277 149.486 9.18304 149.482 2.34164C149.482 1.61493 149.814 1.09305 150.454 0.795602C151.371 0.366344 152.493 1.15005 152.5 2.22052C152.51 3.72738 152.507 9.49474 152.5 10.3924C152.5 10.5759 152.516 10.6614 152.742 10.6614C155.601 10.6507 161.848 10.6507 164.707 10.6614C164.946 10.6614 164.942 10.4156 164.942 10.2428C164.939 7.86677 164.942 4.68207 164.939 2.30602C164.939 1.73961 165.172 1.29967 165.614 0.96303C166.375 0.385937 167.445 0.717231 167.837 1.64165C167.876 1.73071 167.857 1.84826 167.955 1.91416L167.944 22.0732V22.0714Z" fill="#8A8A8A"></path>
    <path d="M109.521 12.0725V2.38664C109.521 1.33398 110.19 0.658927 111.236 0.658927C114.125 0.658927 120.066 0.66249 122.955 0.655365C123.335 0.655365 123.677 0.744423 123.978 0.975972C124.529 1.40167 124.745 2.00904 124.556 2.57188C124.333 3.22378 123.723 3.66373 123.034 3.66907C120.656 3.67263 115.229 3.6762 112.853 3.66551C112.6 3.66551 112.525 3.71182 112.525 3.98255C112.537 5.78152 112.537 8.39268 112.525 10.1916C112.525 10.4446 112.575 10.6601 112.842 10.6601C115.196 10.6476 120.604 10.653 122.96 10.6494C123.272 10.6494 123.561 10.7082 123.827 10.8685C124.431 11.2318 124.738 11.898 124.574 12.4804C124.379 13.1786 123.747 13.6631 123.023 13.6631C120.645 13.6667 115.218 13.6702 112.842 13.656C112.576 13.656 112.525 13.5847 112.525 13.8394C112.535 16.1532 112.535 17.6511 112.525 19.963C112.525 20.2053 112.591 20.248 112.817 20.248C115.184 20.2373 120.602 20.2445 122.966 20.2409C123.287 20.2409 123.586 20.3068 123.857 20.4796C124.434 20.8501 124.729 21.4859 124.579 22.0452C124.392 22.7363 123.775 23.2475 123.076 23.251C120.093 23.2582 114.059 23.2582 111.072 23.251C110.201 23.2475 109.514 22.5172 109.514 21.6195C109.521 18.3849 109.521 15.2946 109.521 12.0636V12.0725Z" fill="#8A8A8A"></path>
    <path d="M130.668 12.4211V18.5233C130.668 19.576 131.339 20.251 132.386 20.251H141.397C142.365 20.251 143.014 19.6615 143.105 18.705C143.18 17.948 143.827 17.2926 144.547 17.2427C145.19 17.1964 145.887 17.7539 146.071 18.4556C146.277 19.2394 145.582 20.1424 144.697 20.2475C143.713 20.3615 143.212 20.8638 143.096 21.8505C143.007 22.6235 142.326 23.2594 141.545 23.263C139.569 23.2737 134.197 23.2737 132.22 23.263C131.427 23.2594 130.751 22.6111 130.673 21.8149C130.578 20.8905 130.029 20.3437 129.103 20.2493C128.295 20.1673 127.657 19.4834 127.657 18.6658C127.654 14.6262 127.654 10.159 127.657 5.26088C127.657 4.43265 128.306 3.75403 129.136 3.67744C130.006 3.59907 130.589 3.01307 130.671 2.14387C130.741 1.30495 131.445 0.66017 132.288 0.665514C134.225 0.661951 139.551 0.661951 141.488 0.665514C142.331 0.658389 143.035 1.30495 143.105 2.14387C143.183 3.01307 143.773 3.60263 144.639 3.681C145.397 3.75047 146.065 4.39168 146.119 5.10592C146.169 5.76495 145.607 6.4685 144.893 6.65018C144.119 6.84611 143.226 6.16214 143.119 5.2876C142.982 4.19932 142.397 3.67922 141.308 3.67922H132.359C131.352 3.67922 130.673 4.36496 130.673 5.37309C130.666 7.58172 130.666 10.2196 130.666 12.4247L130.668 12.4211Z" fill="#8A8A8A"></path>
    <path d="M96.184 3.99227C96.184 3.73935 96.1341 3.66454 95.8667 3.6681C94.5068 3.68413 90.7709 3.67166 89.411 3.67879C88.9315 3.67879 88.5287 3.51136 88.215 3.16047C87.8247 2.72765 87.6375 2.23605 87.8978 1.66609C88.1669 1.06584 88.625 0.706046 89.2951 0.666861C89.7015 0.643706 101.349 0.663299 104.896 0.659736C105.299 0.659736 105.661 0.754137 105.971 1.01419C106.502 1.45413 106.698 2.04013 106.502 2.59407C106.279 3.21391 105.679 3.6681 105.03 3.67166C103.636 3.67879 100.888 3.68235 99.4956 3.6681C99.2497 3.66454 99.1908 3.73044 99.1908 3.97268C99.198 9.84513 99.2015 15.714 99.198 21.5829C99.198 22.3524 98.7488 22.9847 98.0537 23.1984C97.191 23.4638 96.2072 22.6979 96.184 21.7272C96.168 21.0165 96.1769 6.93295 96.1876 3.99227H96.184Z" fill="#8A8A8A"></path>
    <path d="M173.095 0.7547V1.35139H172.213V3.845H171.55V1.35139H170.664V0.7547H173.093H173.095Z" fill="#8A8A8A"></path>
    <path d="M176.309 0.754711H176.895V3.84501H176.232V1.78422L175.239 3.04883L174.246 1.79134V3.84323H173.582V0.75293H174.179L175.237 2.09948L176.31 0.756492L176.309 0.754711Z" fill="#8A8A8A"></path>
  </g>
  <defs>
    <clipPath id="clip0_190_736">
      <rect width="176" height="23" fill="white" transform="translate(0.89502 0.5)"></rect>
    </clipPath>
  </defs>
</svg>
