<?xml version="1.0" encoding="UTF-8"?>
<svg xmlns="http://www.w3.org/2000/svg" width="150" height="24" viewBox="0 0 150 24" fill="none">
  <g clip-path="url(#clip0_190_675)">
    <path d="M136.815 0.128448L129.651 12.6473L122.561 0.128448H117.45L127.094 17.2829V23.9096H132.206V17.2829L141.909 0.128448H136.815Z" fill="#8A8A8A"></path>
    <path d="M96.7518 0.128448V4.72203H103.558V23.9096H108.654V4.72203H115.442V0.128448H96.7518Z" fill="#8A8A8A"></path>
    <path d="M12.8561 18.785C12.2417 19.371 11.4698 19.6642 10.5404 19.6642H5.11261V13.5446H10.5404C11.4698 13.5446 12.242 13.8406 12.8561 14.4317C13.4699 15.0231 13.7773 15.7505 13.7773 16.6125C13.7773 17.4744 13.4699 18.1989 12.8561 18.785ZM5.11261 4.37411H9.85981C10.7009 4.37411 11.3648 4.60614 11.8519 5.07045C12.3388 5.535 12.5823 6.154 12.5823 6.92792C12.5823 7.70185 12.3388 8.32084 11.8519 8.7854C11.3648 9.24946 10.7007 9.48198 9.85981 9.48198H5.11261V4.37411ZM17.5122 13.2131C17.1692 12.8264 16.7709 12.4698 16.3168 12.1435C15.8633 11.8174 15.5509 11.6128 15.3789 11.5297C15.2074 11.4469 15.0665 11.3832 14.9555 11.339L15.2378 11.1731C15.4148 11.0629 15.6388 10.8719 15.9101 10.6011C16.1814 10.3303 16.4552 10.0067 16.7318 9.6312C17.0086 9.25518 17.2354 8.78266 17.4124 8.21341C17.5893 7.64415 17.678 7.04431 17.678 6.41388C17.678 4.74441 16.9728 3.27987 15.5614 2.0195C14.1507 0.758882 12.3662 0.128448 10.2083 0.128448H0V23.9096H10.7893C13.1463 23.9096 15.0829 23.2239 16.5991 21.8534C18.1153 20.4824 18.8733 18.8462 18.8733 16.9445C18.8733 16.1815 18.7319 15.466 18.4499 14.797C18.1676 14.128 17.8549 13.6001 17.5119 13.2134" fill="#8A8A8A"></path>
    <path d="M21.4531 0.128448V23.9096H36.2508V19.2217H26.5652V0.128448H21.4531Z" fill="#8A8A8A"></path>
    <path d="M94.1352 0.128204H89.023V23.9096H94.1352V0.128204Z" fill="#8A8A8A"></path>
    <path d="M81.5016 0.0794678L73.3387 18.5933L65.1193 0.0794678H60.0291L70.6167 23.9098H76.0609L86.6067 0.0794678H81.5016Z" fill="#8A8A8A"></path>
    <path d="M52.1681 6.28979L55.8566 14.5031H48.1607L52.1681 6.28979ZM49.479 0.0794678L38.902 23.9205H43.9716L46.0999 19.169H58.3127L60.4363 23.9205H65.5058L54.9294 0.0794678H49.479Z" fill="#8A8A8A"></path>
    <path d="M145.983 0.126709V0.758137H145.049V3.39526H144.349V0.758137H143.414V0.126709H145.982H145.983Z" fill="#8A8A8A"></path>
    <path d="M149.379 0.126709H150V3.39526H149.3V1.21623L148.248 2.55419L147.198 1.22543V3.39526H146.496V0.126709H147.128L148.248 1.55121L149.379 0.126709Z" fill="#8A8A8A"></path>
  </g>
  <defs>
    <clipPath id="clip0_190_675">
      <rect width="150" height="23.8411" fill="white" transform="translate(0 0.0794678)"></rect>
    </clipPath>
  </defs>
</svg>
