<?xml version="1.0" encoding="UTF-8"?>
<svg xmlns="http://www.w3.org/2000/svg" width="155" height="18" viewBox="0 0 155 18" fill="none">
  <path d="M99.7817 0.0393066L95.2024 10.4656L90.6624 0.0393066H86.771L93.3157 13.8952V17.6195H97.0892V13.8952L103.673 0.0393066H99.7817Z" fill="white"></path>
  <path d="M71.1856 0.0393066V3.42957H76.2169V17.6195H79.9806V3.42957H85.0021V0.0393066H71.1856Z" fill="white"></path>
  <path d="M9.50255 13.8362C9.05052 14.2686 8.48056 14.4848 7.79268 14.4848H3.77351V9.95459H7.78286C8.47074 9.95459 9.04069 10.1708 9.49273 10.613C9.94476 11.0454 10.1708 11.5858 10.1708 12.2246C10.1708 12.8633 9.94476 13.394 9.49273 13.8264M3.77351 3.17407H7.28169C7.90078 3.17407 8.39212 3.34112 8.75571 3.68506C9.11931 4.029 9.29619 4.49087 9.29619 5.06082C9.29619 5.63078 9.11931 6.09264 8.75571 6.43658C8.39212 6.78052 7.90078 6.94758 7.28169 6.94758H3.77351V3.17407ZM12.9321 9.70892C12.6766 9.42394 12.3818 9.15861 12.0477 8.91294C11.7136 8.66727 11.4777 8.51987 11.3598 8.46091C11.2321 8.40195 11.1338 8.35281 11.0454 8.32333L11.2517 8.20541C11.3795 8.1268 11.5465 7.97939 11.7529 7.78286C11.9494 7.58632 12.1558 7.34065 12.3622 7.0655C12.5685 6.79035 12.7356 6.43658 12.8633 6.01403C12.9911 5.59147 13.0599 5.14926 13.0599 4.6874C13.0599 3.44922 12.539 2.36827 11.4974 1.43472C10.4558 0.501168 9.13896 0.0393066 7.54701 0.0393066H0V17.6293H7.96957C9.70892 17.6293 11.1436 17.1184 12.2639 16.1062C13.3842 15.094 13.9443 13.8853 13.9443 12.4801C13.9443 11.92 13.8362 11.3893 13.6298 10.8881C13.4235 10.3968 13.1876 10.0037 12.9419 9.71874" fill="white"></path>
  <path d="M15.8507 0.0393066V17.6195H26.788V14.1506H19.6242V0.0393066H15.8507Z" fill="white"></path>
  <path d="M69.2498 0.0393066H65.4763V17.6293H69.2498V0.0393066Z" fill="white"></path>
  <path d="M59.7963 0L53.8904 13.6888L48.0336 0H44.0537L51.8759 17.6195H55.9049L63.6976 0H59.7963Z" fill="white"></path>
  <path d="M38.079 5.90593L38.6686 4.59896L41.1548 10.1806H41.1352L41.3514 10.6719H35.9564L36.1726 10.1806H36.153L38.0692 5.90593H38.079ZM36.6443 0L28.832 17.6294H32.8708L34.4431 14.1113H42.8844L43.2479 14.927L44.4566 17.6195H48.4955L40.6733 0H36.6443Z" fill="white"></path>
  <path d="M129.921 11.6744C129.783 11.242 129.714 11.0455 129.665 10.8391C128.84 7.6749 127.985 4.51066 127.199 1.32676C127.032 0.658535 126.747 0.422691 126.078 0.481652C125.42 0.540613 124.752 0.530786 124.093 0.481652C123.523 0.442345 123.219 0.629055 122.973 1.17936C120.693 6.36793 118.374 11.5467 116.075 16.7254C115.976 16.9318 115.917 17.1578 115.809 17.4723C116.92 17.4723 117.902 17.4428 118.895 17.4821C119.455 17.5116 119.72 17.2954 119.937 16.7942C121.008 14.3178 122.128 11.8611 123.229 9.40442C123.69 8.36278 124.162 7.32113 124.732 6.0633C124.889 6.60377 124.978 6.91823 125.056 7.22286C125.911 10.4166 126.776 13.6005 127.602 16.7942C127.739 17.315 127.955 17.5214 128.496 17.4821C129.154 17.433 129.822 17.4231 130.481 17.4821C131.1 17.5312 131.395 17.2855 131.64 16.7254C133.91 11.586 136.22 6.47602 138.509 1.34641C138.617 1.10074 138.716 0.855072 138.873 0.491479C137.694 0.491479 136.652 0.511132 135.61 0.481652C135.099 0.461998 134.824 0.629054 134.618 1.1204C133.999 2.59442 133.331 4.03897 132.682 5.50317C131.798 7.48819 130.913 9.46338 129.93 11.6744H129.921ZM148.454 13.6889C148.022 13.8363 147.776 13.9542 147.521 14.0034C146.528 14.1803 145.526 14.4751 144.523 14.4652C142.558 14.4456 141.467 13.0404 141.782 11.0946C141.86 10.6328 141.998 10.1807 142.175 9.74836C143.049 7.59628 144.543 5.98468 146.597 4.92338C148.493 3.9407 150.469 3.34126 152.611 4.35343C153.141 3.14473 153.652 2.00481 154.183 0.805938C152.296 0.304769 150.518 0.324422 148.739 0.57992C143.413 1.34641 138.214 6.11243 137.232 11.1339C136.603 14.3277 138.382 17.1087 141.477 17.6786C143.157 17.9833 144.828 17.826 146.449 17.315C146.646 17.2561 146.882 17.1283 146.96 16.9613C147.452 15.9294 147.904 14.8878 148.434 13.6889H148.454ZM119.76 0.501306C118.649 0.501306 117.716 0.540613 116.792 0.491479C116.163 0.452171 115.878 0.707669 115.632 1.25797C113.372 6.39741 111.083 11.5172 108.803 16.6468C108.695 16.8826 108.606 17.1283 108.469 17.4821C109.559 17.4821 110.522 17.4526 111.485 17.4919C112.046 17.5214 112.301 17.3052 112.527 16.804C114.011 13.4039 115.534 10.0137 117.047 6.62343C117.932 4.6384 118.806 2.66321 119.77 0.501306H119.76ZM154.694 16.0375C154.704 15.0057 153.908 14.1901 152.886 14.1803C151.864 14.1704 151.039 14.9762 151.029 15.9982C151.019 17.0399 151.795 17.826 152.837 17.8457C153.888 17.8555 154.684 17.089 154.694 16.0474V16.0375Z" fill="white"></path>
</svg>
