<?xml version="1.0" encoding="UTF-8"?>
<svg xmlns="http://www.w3.org/2000/svg" width="104" height="42" viewBox="0 0 104 42" fill="none">
  <g clip-path="url(#clip0_190_712)">
    <path d="M19.3691 20.5385V0.5H20.7285V9.62489C21.1108 8.67567 21.7881 7.87671 22.659 7.35202C23.5841 6.80586 24.639 6.52682 25.7105 6.54351C26.6379 6.52682 27.5583 6.72 28.4032 7.10636C29.1702 7.47603 29.8121 8.06989 30.2417 8.80923C30.7089 9.67259 30.9379 10.6457 30.9048 11.6306V20.5624H29.5455V12.0838C29.5974 11.4899 29.5242 10.8889 29.3331 10.3237C29.1419 9.75845 28.8375 9.23853 28.4386 8.79969C28.0539 8.44195 27.6008 8.16291 27.1076 7.98165C26.6143 7.80039 26.0928 7.7193 25.5689 7.74315C24.7381 7.73838 23.9192 7.94587 23.1876 8.34416C22.4489 8.75199 21.8306 9.35062 21.394 10.078C20.9079 10.908 20.6671 11.8596 20.7002 12.8208V20.5743L19.3644 20.5361L19.3691 20.5385Z" fill="#8A8A8A"></path>
    <path d="M39.5542 6.51965C40.7295 6.4958 41.8883 6.79153 42.9125 7.37585C43.8943 7.9554 44.6896 8.80922 45.2017 9.83475C45.7846 11.032 46.0702 12.3557 46.0324 13.6889C46.0678 15.0221 45.7823 16.3457 45.2017 17.543C44.6896 18.5685 43.8943 19.4223 42.9125 20.0019C41.8883 20.579 40.7295 20.8724 39.5542 20.8485C38.3813 20.8724 37.2226 20.579 36.196 20.0019C35.2166 19.4199 34.4212 18.5685 33.9068 17.543C33.3286 16.3457 33.0453 15.0221 33.0831 13.6889C33.0453 12.3557 33.3286 11.0344 33.9068 9.83475C34.4212 8.8116 35.2166 7.95778 36.196 7.37585C37.2202 6.79153 38.379 6.4958 39.5542 6.51965ZM39.5542 7.70736C38.6079 7.6859 37.6757 7.93155 36.8615 8.4157C36.085 8.90939 35.4667 9.62249 35.0844 10.4668C34.6336 11.4708 34.4142 12.5632 34.4425 13.665C34.4165 14.7645 34.6336 15.8544 35.0844 16.8561C35.4644 17.7028 36.0827 18.4183 36.8615 18.9143C37.6733 19.4056 38.6079 19.6537 39.5542 19.6322C40.5006 19.6561 41.4352 19.408 42.247 18.9143C43.0282 18.4183 43.6465 17.7028 44.0335 16.8561C44.4748 15.852 44.692 14.7621 44.666 13.665C44.6943 12.5655 44.4772 11.4708 44.0335 10.4668C43.6465 9.62488 43.0258 8.91177 42.247 8.4157C41.4304 7.94109 40.4959 7.70498 39.5542 7.73837V7.70736Z" fill="#8A8A8A"></path>
    <path d="M48.2933 20.5385V6.79633H49.5135L49.5984 9.65591C49.976 8.68999 50.6604 7.87672 51.5454 7.34487C52.4493 6.79394 53.4877 6.50775 54.545 6.51967C55.6235 6.49582 56.6855 6.79156 57.5965 7.37588C58.4673 7.96496 59.0974 8.85217 59.3735 9.87294C59.6025 9.18845 59.9966 8.57075 60.5181 8.07706C61.0515 7.56667 61.6793 7.16838 62.366 6.90604C63.0693 6.63654 63.8174 6.49821 64.5703 6.49821C65.46 6.4839 66.3379 6.67708 67.1427 7.06106C67.912 7.43312 68.554 8.02459 68.9906 8.76393C69.4814 9.62729 69.7222 10.6123 69.6844 11.6068V20.5075H68.325V11.7451C68.3699 11.1918 68.2967 10.6337 68.1103 10.1091C67.9238 9.58674 67.6312 9.10736 67.2489 8.70669C66.4677 8.01505 65.4482 7.65492 64.4098 7.705C63.5791 7.69785 62.7602 7.91011 62.0356 8.32271C61.3158 8.72815 60.7187 9.32678 60.3105 10.0494C59.8739 10.8341 59.652 11.7237 59.6709 12.6228V20.5385H58.3115V11.769C58.354 11.2133 58.2785 10.6552 58.0897 10.1329C57.9009 9.61059 57.6059 9.13121 57.2189 8.73292C56.4401 8.04605 55.4276 7.68831 54.3963 7.73124C53.5939 7.73124 52.8057 7.94111 52.1071 8.3394C51.3755 8.74485 50.7643 9.34109 50.3371 10.0661C49.8651 10.8842 49.6291 11.8167 49.6574 12.7635V20.5409H48.291L48.2933 20.5385Z" fill="#8A8A8A"></path>
    <path d="M83.3654 9.64873C82.9311 8.69952 82.2349 7.89578 81.3594 7.3377C80.4036 6.76769 79.3085 6.4815 78.1993 6.5125C77.0689 6.49342 75.9549 6.78916 74.9803 7.3687C73.9985 7.94825 73.2032 8.80207 72.6911 9.82761C72.1058 11.0249 71.8202 12.3461 71.858 13.6817C71.8202 15.0149 72.1034 16.3386 72.6911 17.5358C73.2008 18.5614 73.9961 19.4176 74.9803 19.9947C75.9998 20.5695 77.1538 20.8629 78.322 20.8414C79.1079 20.8366 79.8867 20.7007 80.6278 20.4336C81.3145 20.1927 81.9517 19.823 82.504 19.346C83.0491 18.8786 83.4928 18.3062 83.809 17.6575L82.7258 17.0254C82.327 17.8101 81.7181 18.4683 80.97 18.9215C80.1463 19.3985 79.2094 19.637 78.2607 19.6084C77.3214 19.6298 76.3939 19.3866 75.5821 18.9072C74.7938 18.423 74.1661 17.7123 73.7814 16.8657C73.3755 15.9474 73.1631 14.9553 73.1489 13.9536H84.0757V13.0449C84.0993 11.8739 83.8562 10.7148 83.3654 9.6535V9.64873ZM73.7743 10.4739C74.1425 9.63681 74.7466 8.92847 75.5136 8.43956C76.2901 7.96018 77.1845 7.71691 78.0931 7.73837C78.7161 7.70737 79.3416 7.81708 79.9174 8.05796C80.4932 8.30123 81.0101 8.6709 81.4278 9.14074C82.2396 10.1496 82.6715 11.4112 82.6621 12.7086H73.1843C73.2622 11.9383 73.4581 11.1847 73.7719 10.4739H73.7743Z" fill="#8A8A8A"></path>
    <path d="M23.2089 41.1757H17.4174L14.3187 38.6094C13.4455 39.4632 12.4095 40.131 11.272 40.5699C10.1368 41.0087 8.92375 41.2138 7.70835 41.1685C4.15891 41.1685 0.892662 39.4036 0.892662 35.9979C0.892662 33.3863 2.82315 31.8051 5.25867 30.9895C3.79311 29.5942 2.85383 28.168 2.85383 26.3197C2.85383 23.3146 5.35779 21.3423 8.19451 21.3423C10.8354 21.3423 13.4219 23.0308 13.4219 25.4492C13.4219 27.2284 12.1098 28.2777 10.8424 28.8788C10.2595 29.1483 9.653 29.3701 9.03467 29.5418L15.9023 35.2371C16.1831 34.3427 16.3247 33.4102 16.3224 32.4705C16.3224 30.6508 14.0332 30.1595 13.6202 29.4726L16.733 28.4328H16.8392V31.9697C16.8463 33.1836 16.641 34.388 16.2374 35.5304L23.2041 41.1804L23.2089 41.1757ZM13.96 38.2922L7.37323 32.8354C6.71715 32.3036 6.12243 31.7789 5.57255 31.2947C5.12887 31.7646 4.78903 32.3203 4.56719 32.9284C4.34771 33.5366 4.25331 34.1853 4.29107 34.8316C4.29107 38.2064 6.43631 40.1573 9.19751 40.1573C10.9604 40.1573 12.6573 39.4895 13.96 38.2922ZM5.36015 24.581C5.36015 26.5319 7.13723 27.9558 8.47299 29.0576L8.80811 29.3438C9.04883 29.2675 9.27539 29.153 9.48071 29.0052L9.771 28.781C9.87012 28.688 9.96924 28.5878 10.0613 28.4876L10.099 28.4423C10.741 27.6433 11.0784 26.6369 11.0454 25.6066C11.0454 23.2335 9.89372 21.7525 8.06235 21.7525C7.69891 21.7525 7.34019 21.8288 7.00743 21.9719C6.67467 22.115 6.37259 22.3249 6.12007 22.5896C5.86755 22.8543 5.67167 23.1668 5.54187 23.5078C5.41207 23.8489 5.35071 24.2161 5.36251 24.581H5.36015Z" fill="#8A8A8A"></path>
    <path d="M32.0754 39.9593C30.8741 40.9324 29.3873 41.4738 27.8486 41.5C24.4526 41.5 24.0868 39.1031 24.0868 37.7556V27.5599H22.3616V27.0042H24.0868V23.2192H24.3912C25.2998 23.2931 26.1518 23.6914 26.7961 24.3449C27.4639 25.0175 27.8604 25.9142 27.91 26.8658V27.0519H31.6482V29.5799H31.6105C30.0151 28.2396 29.359 27.5455 28.1696 27.5455H27.8864V37.8725C27.8864 38.5355 27.8864 40.3004 29.7177 40.3004C30.4659 40.267 31.1927 40.0404 31.8323 39.6445L32.0754 39.9593Z" fill="#8A8A8A"></path>
    <path d="M36.2432 36.0217C36.1535 36.3556 36.1535 36.7062 36.2432 37.0401C36.2432 37.1641 36.3045 37.2858 36.3423 37.4265C36.3635 37.4742 36.3824 37.5219 36.3966 37.572C36.6821 38.2708 37.1706 38.8646 37.796 39.2772C38.4238 39.6898 39.1578 39.9021 39.9059 39.883C40.7366 39.8544 41.5461 39.623 42.2682 39.2081C42.9904 38.7955 43.604 38.2111 44.0571 37.5076L44.371 37.6936C42.8441 40.0046 40.9207 41.438 38.2043 41.438C34.4425 41.438 31.4972 38.6714 31.4972 34.2402C31.4972 30.2787 33.8784 27.5575 37.0597 26.8181C37.6426 26.6846 38.2397 26.6178 38.8368 26.6178H39.0044C39.913 26.5844 40.8192 26.7466 41.6594 27.0948C41.8812 27.183 42.096 27.2832 42.3084 27.3953C44.7958 28.7142 45.7115 30.8869 44.6731 32.8831C43.1934 35.7355 38.9878 34.6552 37.1116 35.1942C36.8709 35.2538 36.6514 35.3778 36.4697 35.5495C36.4485 35.5686 36.4296 35.5924 36.4154 35.6187C36.347 35.7045 36.2974 35.7999 36.262 35.9049L36.2384 36.0194L36.2432 36.0217ZM37.2131 34.1877L37.3358 34.1328L37.4798 34.078C38.8392 33.5604 40.5714 33.2075 41.4257 31.5666C41.6122 31.2208 41.7325 30.8416 41.7774 30.4481C42.1125 27.6195 40.1065 27.1497 39.4339 27.0733H39.1814C38.8085 27.0733 38.4403 27.1449 38.0981 27.288C36.5712 27.951 35.6248 30.1166 35.6248 33.3458C35.6248 34.0231 35.672 34.7029 35.7688 35.373C35.7688 35.4875 35.7688 35.6044 35.8231 35.7188C35.8774 35.8333 35.8608 35.9335 35.8915 36.0337C35.9033 35.6282 36.0355 35.2347 36.2715 34.9056C36.5075 34.5764 36.8355 34.326 37.2131 34.1853V34.1877Z" fill="#8A8A8A"></path>
    <path d="M59.8526 41.1685H56.8011C56.348 41.1685 55.8973 41.0659 55.489 40.8656C55.0807 40.6653 54.722 40.3743 54.4435 40.0118L50.2167 34.5717L48.9966 36.3127C47.2951 38.7167 48.3476 39.9569 48.5081 41.1685H44.2412C45.9168 39.654 47.3918 37.9249 48.6285 36.0289L49.9099 34.1782L44.3167 26.9803H47.8803C48.1612 26.9803 48.4397 27.0447 48.6945 27.1687C48.9494 27.2927 49.1713 27.474 49.3459 27.6958L52.2298 31.4116C53.7567 29.2222 53.4051 28.1132 53.5349 26.9803H56.5415C55.0429 28.4399 53.7025 30.0569 52.5437 31.8051L59.855 41.1685H59.8526Z" fill="#8A8A8A"></path>
    <path d="M67.6076 39.9593C66.4064 40.9324 64.9196 41.4738 63.3808 41.5C59.9848 41.5 59.619 39.1031 59.619 37.7556V27.5599H57.8938V27.0042H59.619V23.2192H59.9258C60.8344 23.2931 61.6864 23.6914 62.3306 24.3449C63.0009 25.0151 63.3997 25.9142 63.4446 26.8658C63.4469 26.9064 63.4469 26.9493 63.4446 26.9898V27.0519H67.1828V29.5799H67.145C65.5497 28.2396 64.8936 27.5455 63.7042 27.5455H63.421V37.8725C63.421 38.5355 63.421 40.3004 65.2523 40.3004C66.0004 40.267 66.7273 40.0404 67.3669 39.6445L67.61 39.9593H67.6076Z" fill="#8A8A8A"></path>
    <path d="M81.213 30.8583V41.2019H78.0081L77.345 39.1675C76.788 39.8806 76.0824 40.4601 75.2753 40.8608C74.4681 41.2615 73.5808 41.4738 72.684 41.4809C71.9925 41.4928 71.3057 41.3831 70.6544 41.1566C68.9906 40.5245 68.0607 38.9982 68.0607 36.4486V27.0065H68.3675C69.2832 27.0781 70.1423 27.4788 70.7936 28.1322C71.4662 28.8024 71.8674 29.6992 71.9241 30.6531V30.7772C71.9288 30.8034 71.9288 30.8296 71.9241 30.8535V36.8111C71.9241 37.8128 71.9241 40.2956 74.3501 40.2956C74.9378 40.236 75.5065 40.0571 76.021 39.7637C76.5355 39.4728 76.9863 39.0745 77.3403 38.5999V27.0089H77.6305C78.5462 27.0829 79.4053 27.4811 80.0566 28.1346C80.7269 28.8048 81.1257 29.7039 81.1776 30.6555C81.1823 30.6961 81.1823 30.7366 81.1776 30.7796L81.2154 30.8654L81.213 30.8583Z" fill="#8A8A8A"></path>
    <path d="M91.5239 27.0042V30.3574H91.4012C91.1298 30.0307 90.7923 29.7659 90.41 29.5847C90.0276 29.4034 89.6099 29.3104 89.1875 29.308C88.6919 29.3056 88.2057 29.4344 87.7762 29.6849C87.3585 29.9305 87.0045 30.2716 86.7378 30.6794C86.5065 31.03 86.3531 31.4283 86.287 31.8433L86.2186 32.0746V41.1542H82.4025V27.0042H82.6927C83.5848 27.0733 84.4203 27.4716 85.0433 28.1227C85.6994 28.8024 86.0864 29.7016 86.1266 30.6508V31.2661V31.2279C86.8062 28.645 88.2624 27.121 90.2542 27.0042H91.5215H91.5239Z" fill="#8A8A8A"></path>
    <path d="M95.0403 36.0217C94.9459 36.3532 94.9459 36.7062 95.0403 37.0401C95.0662 37.1713 95.104 37.3001 95.1465 37.4265L95.1913 37.572C95.4792 38.2684 95.9678 38.8622 96.5932 39.2748C97.2186 39.6874 97.9549 39.8997 98.7006 39.883C99.5314 39.8544 100.343 39.6254 101.065 39.2104C101.788 38.7978 102.401 38.2135 102.852 37.5076L103.163 37.6936C101.636 40.0046 99.7225 41.438 97.0062 41.438C93.2372 41.438 90.2896 38.6714 90.2896 34.2402C90.2896 30.2787 92.6779 27.5575 95.8521 26.8181C96.435 26.6846 97.0321 26.6178 97.6292 26.6178H97.7968C98.7054 26.5844 99.6116 26.7466 100.452 27.0948C100.674 27.183 100.891 27.2832 101.101 27.3953C103.588 28.7142 104.504 30.8869 103.465 32.8831C101.986 35.7355 97.7802 34.6552 95.9111 35.1942C95.6728 35.2538 95.4556 35.3778 95.2786 35.5495C95.255 35.5686 95.2338 35.5924 95.2173 35.6187C95.1488 35.7045 95.0993 35.7999 95.0639 35.9049C95.0521 35.9216 95.0426 35.9406 95.0356 35.9597C95.0308 35.9788 95.0308 36.0003 95.0332 36.0217H95.0403ZM96.0008 34.1877L96.1306 34.1328C96.1754 34.1114 96.2203 34.0923 96.2675 34.078C97.6268 33.5604 99.3662 33.2075 100.213 31.5666C100.4 31.2184 100.52 30.8416 100.572 30.4481C100.9 27.6195 98.9012 27.1497 98.2216 27.0733H97.969C97.5962 27.0733 97.228 27.1473 96.8858 27.288C95.3589 27.951 94.422 30.1166 94.422 33.3458C94.4172 34.0231 94.4644 34.7005 94.5588 35.373C94.5706 35.4899 94.5919 35.6068 94.6202 35.7188C94.6202 35.8262 94.6202 35.9335 94.6816 36.0337C94.6957 35.6282 94.8279 35.2347 95.0639 34.9056C95.2975 34.5764 95.6256 34.326 96.0008 34.1829V34.1877Z" fill="#8A8A8A"></path>
  </g>
  <defs>
    <clipPath id="clip0_190_712">
      <rect width="103" height="41" fill="white" transform="translate(0.89502 0.5)"></rect>
    </clipPath>
  </defs>
</svg>
