<?xml version="1.0" encoding="UTF-8"?>
<svg xmlns="http://www.w3.org/2000/svg" width="96" height="13" viewBox="0 0 96 13" fill="none">
  <g clip-path="url(#clip0_190_2230)">
    <path d="M5.18635 3.64V4.56309H0.882812V3.64H5.18635ZM2.22773 1.44777H3.27899V10.4028C3.27899 10.7844 3.34342 11.0837 3.4723 11.3025C3.60118 11.5167 3.76963 11.6701 3.97768 11.7608C4.1848 11.8478 4.40665 11.8917 4.64139 11.8917C4.77855 11.8917 4.89546 11.8842 4.99396 11.8683C5.09153 11.8487 5.17806 11.8291 5.25263 11.8085L5.4754 12.7681C5.37322 12.8073 5.24803 12.8438 5.09982 12.8756C4.95069 12.9112 4.7675 12.9289 4.54749 12.9289C4.16363 12.9289 3.79357 12.8438 3.43732 12.6727C3.08475 12.5015 2.7957 12.2481 2.56833 11.9104C2.34095 11.5728 2.22773 11.1538 2.22773 10.6535V1.44777Z" fill="#8A8A8A"></path>
    <path d="M8.92186 13C8.37781 13 7.88072 12.8924 7.43058 12.6783C6.98043 12.4594 6.62234 12.1461 6.3563 11.7374C6.09027 11.324 5.95679 10.8237 5.95679 10.2363C5.95679 9.78367 6.04056 9.40208 6.20902 9.09251C6.37748 8.78295 6.6159 8.52856 6.9252 8.33028C7.2345 8.13201 7.60088 7.97489 8.02341 7.85985C8.44593 7.74482 8.91173 7.65503 9.42079 7.59143C9.92617 7.52784 10.3524 7.47266 10.7013 7.42496C11.0538 7.37726 11.3217 7.30151 11.5058 7.19863C11.6899 7.09575 11.782 6.92834 11.782 6.69827V6.4841C11.782 5.86028 11.5979 5.37021 11.2306 5.01295C10.866 4.65194 10.3423 4.4705 9.65737 4.4705C9.00747 4.4705 8.47723 4.61546 8.06575 4.90539C7.65887 5.19532 7.37258 5.53669 7.20873 5.93043L6.21638 5.56662C6.41982 5.06626 6.70151 4.6669 7.06236 4.36949C7.42229 4.06741 7.82549 3.85136 8.27195 3.72043C8.71841 3.58575 9.1704 3.51748 9.62791 3.51748C9.97219 3.51748 10.3303 3.56331 10.7022 3.65496C11.0778 3.74662 11.4267 3.90561 11.747 4.13194C12.0683 4.35453 12.3279 4.66597 12.5276 5.06719C12.7274 5.46467 12.8268 5.96877 12.8268 6.58043V12.7942H11.782V11.3465H11.7175C11.5923 11.6168 11.4064 11.8786 11.1597 12.133C10.913 12.3874 10.6037 12.596 10.2318 12.7587C9.85989 12.9214 9.42355 13.0028 8.92278 13.0028L8.92186 13ZM9.0627 12.0292C9.61871 12.0292 10.1001 11.9039 10.507 11.6542C10.9139 11.4045 11.2269 11.0724 11.4469 10.6591C11.6697 10.2419 11.7811 9.78367 11.7811 9.28237V7.95992C11.7028 8.03568 11.5712 8.10302 11.388 8.16287C11.2076 8.22273 10.9986 8.27604 10.7593 8.32374C10.5245 8.36769 10.2898 8.4051 10.055 8.4369C9.8203 8.4687 9.60858 8.49676 9.42079 8.52014C8.91173 8.58374 8.47723 8.68287 8.1173 8.81849C7.75737 8.95316 7.48121 9.14021 7.28973 9.3787C7.09826 9.61345 7.0016 9.9146 7.0016 10.284C7.0016 10.8405 7.19768 11.2707 7.58891 11.5765C7.98014 11.8786 8.47171 12.0292 9.0627 12.0292Z" fill="#8A8A8A"></path>
    <path d="M15.4946 0.590149V12.7914H14.4498V0.590149H15.4946Z" fill="#8A8A8A"></path>
    <path d="M20.749 12.9822C19.9076 12.9822 19.1795 12.784 18.5646 12.3865C17.9496 11.9853 17.4746 11.4316 17.1377 10.7245C16.8045 10.0137 16.6388 9.1954 16.6388 8.2695C16.6388 7.3436 16.8054 6.52993 17.1377 5.81446C17.4746 5.09525 17.9386 4.53317 18.5296 4.1282C19.1243 3.7195 19.8119 3.51468 20.5907 3.51468C21.0804 3.51468 21.5517 3.60633 22.0056 3.78871C22.4594 3.96734 22.8663 4.24324 23.2271 4.61641C23.5917 4.98583 23.8789 5.45252 24.0906 6.01648C24.3023 6.57669 24.4082 7.23979 24.4082 8.00669V8.53137H17.3623V7.59612H23.3394C23.3394 7.00784 23.2216 6.48036 22.9869 6.01087C22.7558 5.53856 22.4327 5.16446 22.0184 4.89043C21.607 4.61641 21.132 4.47892 20.5916 4.47892C20.0199 4.47892 19.5173 4.63418 19.0828 4.94374C18.6483 5.25331 18.3077 5.66295 18.061 6.17079C17.818 6.67957 17.6947 7.23511 17.691 7.83928V8.3995C17.691 9.12619 17.8143 9.76216 18.061 10.3055C18.3114 10.8461 18.6658 11.2651 19.1243 11.5625C19.5827 11.8599 20.124 12.0096 20.7509 12.0096C21.178 12.0096 21.5517 11.9422 21.8721 11.8066C22.197 11.6719 22.4695 11.4905 22.6886 11.2642C22.9114 11.0341 23.0798 10.7816 23.194 10.5076L24.1863 10.8349C24.0492 11.2202 23.8246 11.5756 23.5116 11.9011C23.2023 12.2265 22.8147 12.4884 22.3489 12.6876C21.8868 12.8822 21.3547 12.9794 20.7518 12.9794L20.749 12.9822Z" fill="#8A8A8A"></path>
    <path d="M26.5982 7.07237V12.7914H25.5533V3.64H26.5696V5.07561H26.6635C26.8752 4.60705 27.2039 4.23201 27.6503 3.94957C28.1005 3.66338 28.6565 3.52029 29.3174 3.52029C29.9241 3.52029 30.4571 3.64935 30.9146 3.90748C31.3767 4.16187 31.7348 4.53691 31.9889 5.03352C32.2475 5.53014 32.3764 6.13993 32.3764 6.86288V12.7905H31.3316V6.92834C31.3316 6.17734 31.1245 5.58345 30.7093 5.14669C30.2987 4.70993 29.7464 4.49108 29.0532 4.49108C28.5792 4.49108 28.1585 4.59396 27.7912 4.80065C27.423 5.00734 27.1321 5.30475 26.9167 5.69475C26.7049 6.08007 26.6 6.53834 26.6 7.07144L26.5982 7.07237Z" fill="#8A8A8A"></path>
    <path d="M37.5231 3.64V4.56309H33.2196V3.64H37.5231ZM34.5636 1.44777H35.6149V10.4028C35.6149 10.7844 35.6793 11.0837 35.8091 11.3025C35.938 11.5167 36.1064 11.6701 36.3145 11.7608C36.5216 11.8478 36.7434 11.8917 36.9782 11.8917C37.1153 11.8917 37.2323 11.8842 37.3307 11.8683C37.4283 11.8487 37.5149 11.8291 37.5894 11.8085L37.8122 12.7681C37.71 12.8073 37.5848 12.8438 37.4366 12.8756C37.2875 12.9112 37.1043 12.9289 36.8843 12.9289C36.5004 12.9289 36.1304 12.8438 35.7741 12.6727C35.4215 12.5015 35.1325 12.2481 34.9051 11.9104C34.6777 11.5728 34.5645 11.1538 34.5645 10.6535V1.44777H34.5636Z" fill="#8A8A8A"></path>
    <path d="M41.9445 12.7914V3.64001H44.07V12.7914H41.9445ZM43.0132 2.34188C42.6763 2.34188 42.3873 2.22871 42.1443 2.00238C41.9012 1.77231 41.7806 1.49641 41.7806 1.17468C41.7806 0.852956 41.9022 0.573316 42.1443 0.346985C42.3873 0.116913 42.6763 0.00187683 43.0132 0.00187683C43.3502 0.00187683 43.6438 0.116913 43.8822 0.346985C44.1253 0.573316 44.2459 0.849215 44.2459 1.17468C44.2459 1.50015 44.1243 1.77231 43.8822 2.00238C43.6438 2.22871 43.3538 2.34188 43.0132 2.34188Z" fill="#8A8A8A"></path>
    <path d="M47.2238 7.42964V12.7914H45.0983V3.64H47.1299V5.19533H47.2358C47.4429 4.68281 47.7743 4.27597 48.2281 3.97389C48.6865 3.6718 49.2518 3.52122 49.9247 3.52122C50.547 3.52122 51.0892 3.6559 51.5513 3.92619C52.0171 4.19648 52.377 4.58741 52.632 5.09993C52.8907 5.61245 53.0177 6.23346 53.014 6.96482V12.7914H50.8885V7.29871C50.8885 6.68705 50.732 6.2082 50.419 5.8631C50.1097 5.51799 49.6807 5.34497 49.133 5.34497C48.7611 5.34497 48.4306 5.4282 48.1407 5.59561C47.8544 5.75835 47.6298 5.99497 47.465 6.30453C47.3048 6.6141 47.2247 6.99007 47.2247 7.43058L47.2238 7.42964Z" fill="#8A8A8A"></path>
    <path d="M58.5852 3.64001V5.3085H53.2534V3.64001H58.5852ZM54.5864 12.7914V2.77677C54.5864 2.16137 54.7116 1.64886 54.9619 1.23922C55.216 0.83051 55.5566 0.524683 55.9838 0.321733C56.4109 0.118784 56.884 0.0177765 57.4051 0.0177765C57.7733 0.0177765 58.1001 0.0477045 58.3854 0.107561C58.6708 0.167417 58.8825 0.220726 59.0197 0.268424L58.5972 1.93691C58.507 1.90886 58.3937 1.88173 58.2566 1.85368C58.1194 1.82188 57.9666 1.80598 57.7981 1.80598C57.4032 1.80598 57.1225 1.90324 56.9586 2.09778C56.7984 2.28857 56.7183 2.5626 56.7183 2.91986V12.7924H54.5873L54.5864 12.7914Z" fill="#8A8A8A"></path>
    <path d="M64.8403 8.94288V3.64H66.9659V12.7914H64.9048V11.165H64.8109C64.6074 11.6776 64.2724 12.0965 63.8066 12.422C63.3445 12.7475 62.7746 12.9102 62.098 12.9102C61.5071 12.9102 60.9842 12.7774 60.5304 12.5109C60.0802 12.2406 59.7276 11.8496 59.4736 11.3371C59.2195 10.8209 59.0916 10.1971 59.0916 9.46662V3.64H61.2171V9.13273C61.2171 9.71259 61.3736 10.1737 61.6866 10.515C61.9995 10.8564 62.411 11.0276 62.9201 11.0276C63.2331 11.0276 63.5369 10.9499 63.8305 10.7956C64.1242 10.6404 64.3644 10.4103 64.5531 10.1045C64.7446 9.79489 64.8403 9.4077 64.8403 8.94288Z" fill="#8A8A8A"></path>
    <path d="M75.1227 6.05949L73.1849 6.27367C73.1297 6.07539 73.034 5.88834 72.8968 5.71345C72.7633 5.53856 72.5838 5.39734 72.3564 5.29072C72.1291 5.18316 71.852 5.12985 71.5224 5.12985C71.0806 5.12985 70.7087 5.22712 70.4067 5.42165C70.1094 5.61618 69.9621 5.8687 69.9667 6.17827C69.963 6.44482 70.0588 6.66086 70.2539 6.82734C70.4537 6.99381 70.7823 7.13129 71.2408 7.23885L72.779 7.57273C73.6323 7.75978 74.2666 8.05532 74.6817 8.46029C75.1006 8.86525 75.3123 9.39554 75.316 10.0511C75.3123 10.6273 75.1457 11.1351 74.8171 11.5765C74.4921 12.0133 74.0401 12.3547 73.4611 12.6016C72.8821 12.8476 72.2165 12.971 71.4644 12.971C70.3607 12.971 69.4715 12.7363 68.7986 12.2677C68.1256 11.7954 67.7243 11.1379 67.5945 10.2952L69.6675 10.0923C69.7614 10.5057 69.9612 10.8171 70.2668 11.0276C70.5724 11.238 70.9692 11.3437 71.4589 11.3437C71.9486 11.3437 72.3693 11.238 72.674 11.0276C72.9833 10.8171 73.138 10.5571 73.138 10.2466C73.138 9.98475 73.0376 9.76777 72.8388 9.59755C72.6427 9.4264 72.338 9.29546 71.9229 9.20475L70.3846 8.87741C69.5193 8.69503 68.8796 8.38734 68.4644 7.95431C68.0492 7.51755 67.8439 6.96575 67.8476 6.29798C67.8439 5.73403 67.9949 5.24582 68.2996 4.83244C68.6089 4.41532 69.0379 4.09359 69.5856 3.86726C70.137 3.63719 70.774 3.52216 71.4939 3.52216C72.5507 3.52216 73.3829 3.75036 73.9895 4.2077C74.5998 4.6641 74.9782 5.2823 75.1227 6.06043V6.05949Z" fill="#8A8A8A"></path>
    <path d="M75.9116 12.7914V3.64001H78.0371V12.7914H75.9116ZM76.9803 2.34188C76.6434 2.34188 76.3544 2.22871 76.1114 2.00238C75.8683 1.77231 75.7468 1.49641 75.7468 1.17468C75.7468 0.852956 75.8683 0.573316 76.1114 0.346985C76.3544 0.116913 76.6434 0.00187683 76.9803 0.00187683C77.3173 0.00187683 77.6109 0.116913 77.8493 0.346985C78.0924 0.573316 78.213 0.849215 78.213 1.17468C78.213 1.50015 78.0914 1.77231 77.8493 2.00238C77.6109 2.22871 77.321 2.34188 76.9803 2.34188Z" fill="#8A8A8A"></path>
    <path d="M82.9998 12.9701C82.1188 12.9701 81.3557 12.7737 80.7095 12.3799C80.0633 11.9862 79.5625 11.4363 79.2063 10.7292C78.8537 10.0222 78.6779 9.19633 78.6779 8.25079C78.6779 7.30525 78.8537 6.47755 79.2063 5.76676C79.5625 5.05597 80.0633 4.50324 80.7095 4.11043C81.3557 3.71762 82.1188 3.52029 82.9998 3.52029C83.8808 3.52029 84.6439 3.71669 85.2901 4.11043C85.9363 4.50324 86.4353 5.05597 86.7878 5.76676C87.1441 6.47755 87.3218 7.30619 87.3218 8.25079C87.3218 9.19539 87.1441 10.0222 86.7878 10.7292C86.4353 11.4363 85.9363 11.9862 85.2901 12.3799C84.6439 12.7727 83.8808 12.9701 82.9998 12.9701ZM83.0118 11.2427C83.4895 11.2427 83.8881 11.1099 84.2094 10.8433C84.5307 10.573 84.7691 10.212 84.9256 9.75935C85.0858 9.30669 85.1658 8.80165 85.1658 8.24611C85.1658 7.69057 85.0858 7.17993 84.9256 6.72727C84.7691 6.27086 84.5297 5.90705 84.2094 5.63676C83.8881 5.36647 83.4895 5.2318 83.0118 5.2318C82.534 5.2318 82.1152 5.36647 81.7902 5.63676C81.4689 5.90705 81.2287 6.26993 81.0676 6.72727C80.9111 7.17993 80.8328 7.68683 80.8328 8.24611C80.8328 8.80539 80.9111 9.30669 81.0676 9.75935C81.2278 10.212 81.4689 10.574 81.7902 10.8433C82.1152 11.1099 82.522 11.2427 83.0118 11.2427Z" fill="#8A8A8A"></path>
    <path d="M90.0935 7.42964V12.7914H87.968V3.64H89.9997V5.19533H90.1055C90.3126 4.68281 90.644 4.27597 91.0979 3.97389C91.5563 3.6718 92.1215 3.52122 92.7944 3.52122C93.4167 3.52122 93.9589 3.6559 94.421 3.92619C94.8868 4.19648 95.2467 4.58741 95.5008 5.09993C95.7595 5.61245 95.8865 6.23346 95.8828 6.96482V12.7914H93.7573V7.29871C93.7573 6.68705 93.6008 6.2082 93.2878 5.8631C92.9785 5.51799 92.5496 5.34497 92.0018 5.34497C91.6299 5.34497 91.2995 5.4282 91.0095 5.59561C90.7241 5.75835 90.4986 5.99497 90.3338 6.30453C90.1736 6.6141 90.0935 6.99007 90.0935 7.43058V7.42964Z" fill="#8A8A8A"></path>
  </g>
  <defs>
    <clipPath id="clip0_190_2230">
      <rect width="95" height="13" fill="white" transform="translate(0.882812)"></rect>
    </clipPath>
  </defs>
</svg>
