<?xml version="1.0" encoding="UTF-8"?>
<svg xmlns="http://www.w3.org/2000/svg" width="126" height="24" viewBox="0 0 126 24" fill="none">
  <g clip-path="url(#clip0_190_699)">
    <path d="M70.035 9.64499C69.54 9.28499 69.06 8.90999 68.565 8.54999C68.52 8.50499 68.49 8.47499 68.49 8.41499V5.95499C68.49 5.86499 68.49 5.77499 68.49 5.68499C68.49 5.65499 68.49 5.63999 68.49 5.60999V5.45999H68.475C68.43 5.23499 68.325 5.05499 68.175 4.88999C68.085 4.79999 67.98 4.67999 67.845 4.78499C67.62 4.94999 67.44 5.17499 67.395 5.47499C67.395 5.47499 67.395 5.54999 67.395 5.57999C67.395 5.72999 67.395 5.87999 67.395 6.02999V7.93499C67.395 8.09999 67.395 8.24999 67.395 8.41499C67.395 8.45999 67.365 8.51999 67.32 8.54999C66.99 8.81999 66.645 9.07499 66.315 9.32999C65.34 10.065 64.35 10.815 63.36 11.535C63.24 11.625 63.15 11.7 63.195 11.88C63.225 12.045 63.225 12.21 63.225 12.375C63.27 12.375 63.3 12.345 63.33 12.345C64.425 11.91 65.52 11.475 66.6 11.04C66.855 10.935 67.125 10.995 67.395 10.98V14.46C67.38 14.565 67.32 14.655 67.23 14.73C66.81 15.09 66.405 15.48 66 15.855C65.865 15.99 65.85 15.99 65.925 16.185C65.925 16.185 65.94 16.185 65.955 16.185C66.51 16.02 67.065 15.87 67.62 15.705C67.695 15.69 67.74 15.705 67.785 15.765C67.83 15.84 67.89 15.915 67.95 15.99C68.01 15.9 68.07 15.84 68.1 15.765C68.145 15.69 68.205 15.675 68.265 15.705C68.64 15.81 69 15.915 69.375 16.02C69.57 16.08 69.765 16.125 69.96 16.185C70.035 16.05 70.005 15.96 69.9 15.87C69.45 15.465 69.015 15.06 68.565 14.655C68.535 14.625 68.505 14.595 68.49 14.55V11.85C68.49 11.61 68.49 11.37 68.49 11.115C68.49 11.085 68.49 11.04 68.49 10.995C68.7 10.995 68.895 10.995 69.09 10.995C69.09 10.995 69.105 10.995 69.12 10.995C69.285 11.055 69.45 11.13 69.615 11.19C70.395 11.49 71.175 11.805 71.94 12.105C72.165 12.195 72.405 12.285 72.645 12.375C72.66 12.12 72.69 11.88 72.705 11.64C72.36 11.385 72.015 11.13 71.67 10.86C71.115 10.44 70.56 10.035 70.02 9.61499L70.035 9.64499Z" fill="#8A8A8A"></path>
    <path d="M0 2.08501H3.705V23.805H5.73V2.08501H9.435V0.195007H0V2.08501Z" fill="#8A8A8A"></path>
    <path d="M18 12.54C19.38 12.03 20.22 11.025 20.22 8.83499V4.31999C20.22 1.58999 18.84 0.209991 16.08 0.209991H11.4V23.805H13.425V13.485H15.72C17.445 13.485 18.255 14.265 18.255 15.945V23.805H20.28V15.885C20.28 13.935 19.5 12.945 18.015 12.555L18 12.54ZM15.735 11.625H13.41V2.08499H16.005C17.49 2.08499 18.195 2.75999 18.195 4.21499V9.20999C18.195 10.86 17.385 11.64 15.735 11.64V11.625Z" fill="#8A8A8A"></path>
    <path d="M26.49 0.13501L22.545 23.805H24.495L25.17 19.35H30.195L30.9 23.805H32.85L28.92 0.13501H26.49ZM25.485 17.46L27.675 3.46501L29.895 17.46H25.485Z" fill="#8A8A8A"></path>
    <path d="M38.325 19.785L35.385 0.195007H33.33L37.245 23.865H39.405L43.305 0.195007H41.355L38.325 19.785Z" fill="#8A8A8A"></path>
    <path d="M47.655 12.705H52.575V10.815H47.655V2.08501H52.755V0.195007H45.63V23.805H52.815V21.915H47.655V12.705Z" fill="#8A8A8A"></path>
    <path d="M57.54 0.195007H55.515V23.805H62.355V21.915H57.54V0.195007Z" fill="#8A8A8A"></path>
    <path d="M84.405 10.14L84.435 19.11L79.305 0.195007H76.74V23.805H78.675V13.65L78.6 4.35001L83.925 23.805H86.325V0.195007H84.405V10.14Z" fill="#8A8A8A"></path>
    <path d="M94.47 0H93.39C90.63 0 89.25 1.41 89.25 4.11V19.845C89.25 22.575 90.63 23.985 93.39 23.985H94.47C97.23 23.985 98.61 22.575 98.61 19.845V4.11C98.61 1.41 97.23 0 94.47 0ZM96.6 19.95C96.6 21.405 95.895 22.11 94.41 22.11H93.465C91.98 22.11 91.275 21.405 91.275 19.95V4.05C91.275 2.595 91.98 1.89 93.465 1.89H94.41C95.895 1.89 96.6 2.595 96.6 4.05V19.965V19.95Z" fill="#8A8A8A"></path>
    <path d="M103.65 0.195007H101.625V23.79H103.65V0.195007Z" fill="#8A8A8A"></path>
    <path d="M113.385 12.54C114.765 12.03 115.605 11.025 115.605 8.83499V4.31999C115.605 1.58999 114.225 0.209991 111.465 0.209991H106.785V23.805H108.81V13.485H111.105C112.83 13.485 113.64 14.265 113.64 15.945V23.805H115.665V15.885C115.665 13.935 114.885 12.945 113.4 12.555L113.385 12.54ZM111.12 11.625H108.795V2.08499H111.39C112.875 2.08499 113.58 2.75999 113.58 4.21499V9.20999C113.58 10.86 112.77 11.64 111.12 11.64V11.625Z" fill="#8A8A8A"></path>
    <path d="M120.735 21.915V12.705H125.655V10.815H120.735V2.08501H125.82V0.195007H118.71V23.805H125.895V21.915H120.735Z" fill="#8A8A8A"></path>
  </g>
  <defs>
    <clipPath id="clip0_190_699">
      <rect width="125.895" height="24" fill="white"></rect>
    </clipPath>
  </defs>
</svg>
